<?xml version="1.0" standalone="no"?>
<!DOCTYPE svg PUBLIC "-//W3C//DTD SVG 20010904//EN"
 "http://www.w3.org/TR/2001/REC-SVG-20010904/DTD/svg10.dtd">
<svg version="1.0" xmlns="http://www.w3.org/2000/svg"
 width="1024.000000pt" height="1024.000000pt" viewBox="0 0 1024.000000 1024.000000"
 preserveAspectRatio="xMidYMid meet">

<g transform="translate(0.000000,1024.000000) scale(0.100000,-0.100000)"
fill="" stroke="none">
<circle cx="5120" cy="5120" r="3300" fill="#008100"/>
<path d="M4905 8633 c-91 -6 -318 -34 -440 -54 -506 -83 -1133 -362 -1539
-686 -413 -329 -765 -787 -1002 -1303 -86 -189 -123 -290 -183 -512 -94 -344
-141 -669 -141 -978 0 -681 197 -1345 562 -1895 218 -329 430 -575 663 -770
374 -312 709 -502 1135 -645 228 -77 330 -103 552 -139 305 -50 361 -55 628
-55 267 0 343 7 650 60 409 70 863 242 1200 455 299 188 620 464 830 714 169
201 348 484 480 760 159 331 245 619 312 1035 21 130 23 178 23 470 0 355 -4
397 -70 725 -129 649 -415 1213 -876 1730 -179 202 -347 345 -594 510 -505
336 -1060 524 -1699 575 -119 9 -372 11 -491 3z m615 -339 c667 -75 1309 -371
1779 -819 297 -284 520 -595 712 -995 142 -295 241 -649 286 -1015 20 -168 23
-500 5 -660 -70 -624 -225 -1044 -577 -1562 -108 -160 -201 -269 -385 -454
-166 -166 -263 -246 -430 -354 -279 -181 -534 -301 -854 -401 -288 -91 -489
-123 -809 -131 l-228 -6 7 29 c8 35 110 308 154 414 82 197 232 447 328 547
31 32 116 109 187 171 185 160 265 196 661 296 342 86 514 196 704 448 171
226 303 528 361 821 24 125 24 188 0 235 -11 20 -59 80 -106 132 -122 134
-248 304 -310 418 -200 368 -334 543 -536 697 -215 165 -469 298 -739 388
-145 48 -261 72 -435 90 l-109 12 -7 40 c-11 65 -29 353 -39 615 -10 276 -20
332 -71 374 -65 55 -159 27 -345 -105 -125 -88 -387 -313 -524 -449 -136 -135
-411 -445 -514 -580 -301 -393 -532 -860 -611 -1238 -18 -87 -58 -151 -232
-366 -65 -80 -164 -203 -220 -273 -56 -70 -144 -180 -195 -244 -51 -64 -140
-178 -198 -253 -57 -74 -107 -132 -111 -128 -8 10 -63 189 -89 291 -60 236
-89 455 -97 721 -6 229 7 449 38 635 26 154 101 464 129 535 12 30 27 71 32
90 30 110 225 498 316 630 25 36 53 76 63 90 9 14 34 51 54 83 53 81 238 289
353 396 330 308 690 522 1167 694 191 69 471 126 720 146 72 6 148 13 170 15
76 8 411 -4 545 -20z m813 -2658 c65 -33 160 -127 182 -180 8 -20 15 -64 15
-99 0 -119 -86 -249 -199 -300 -67 -31 -168 -29 -241 5 -110 50 -199 179 -208
301 -6 81 12 135 69 207 62 79 115 100 239 97 72 -2 94 -7 143 -31z" fill="#fff"/>
<path d="M6204 7530 c-44 -10 -147 -68 -256 -143 -106 -73 -433 -331 -496
-391 -51 -48 -78 -94 -64 -108 5 -5 61 -20 123 -34 63 -13 132 -30 154 -38 22
-8 74 -24 115 -36 131 -38 414 -161 515 -225 28 -17 56 -35 64 -39 11 -7 13
64 9 450 -4 453 -4 460 -26 506 -30 61 -66 76 -138 58z" fill="#fff"/>
</g>
</svg>
